<svg xmlns="http://www.w3.org/2000/svg" viewBox="0 0 175.35 29.68"><defs><style>.cls-1{fill:#009ee2;}.cls-2{fill:#3c3c3b;}</style></defs><g id="Capa_2" data-name="Capa 2"><g id="Layer_2" data-name="Layer 2"><path class="cls-1" d="M5.73,29.44h0A5.74,5.74,0,0,1,0,23.71V.51H13.15a10.76,10.76,0,0,1,7.58,2.67,9.38,9.38,0,0,1,2.82,7.1,9.39,9.39,0,0,1-2.86,7.19,10.75,10.75,0,0,1-7.54,2.63H5.73ZM13,14.6a5.27,5.27,0,0,0,3.73-1.14,4.05,4.05,0,0,0,1.18-3.14,4.08,4.08,0,0,0-1.18-3.14A5.31,5.31,0,0,0,13,6.05H5.73V14.6Z"/><path class="cls-1" d="M29.79,25.32a14.49,14.49,0,0,1-4.05-10.44A14.51,14.51,0,0,1,29.82,4.44,14.12,14.12,0,0,1,40.42.12,14.09,14.09,0,0,1,51,4.44a14.44,14.44,0,0,1,4,10.44,14.49,14.49,0,0,1-4,10.48,14.12,14.12,0,0,1-10.6,4.32A14.15,14.15,0,0,1,29.79,25.32ZM47,21.43a9.08,9.08,0,0,0,2.39-6.55A9,9,0,0,0,47,8.36a8.55,8.55,0,0,0-6.56-2.63,8.48,8.48,0,0,0-6.55,2.63,9,9,0,0,0-2.4,6.52,9.09,9.09,0,0,0,2.4,6.55A8.45,8.45,0,0,0,40.42,24,8.32,8.32,0,0,0,47,21.43Z"/><path class="cls-1" d="M61,27a9.59,9.59,0,0,1-3.41-6.79l-.16-1.53h5.89l.07,1.29a3.52,3.52,0,0,0,1.93,3,9.88,9.88,0,0,0,5,1c6,0,6-2.35,6-3.21a1.5,1.5,0,0,0-.71-1.38,10,10,0,0,0-2.94-1.33c-1.3-.4-2.71-.71-4.24-1.06a30.92,30.92,0,0,1-4.51-1.42,10.4,10.4,0,0,1-3.77-2.43A6,6,0,0,1,58.33,8.6a7.78,7.78,0,0,1,2.94-6.28C63.16.79,66,0,69.56,0s6.51.86,8.59,2.59a8.16,8.16,0,0,1,3.14,6.16l.08,1.46H75.64L75.48,9c-.11-1-.58-2.36-3.18-3.14a10.49,10.49,0,0,0-3-.35,8.87,8.87,0,0,0-2.94.39,5.27,5.27,0,0,0-1.65.82,1.7,1.7,0,0,0-.59.87,3.9,3.9,0,0,0-.2,1.25c0,.08,0,.28.36.63a4.8,4.8,0,0,0,1.61,1,23.52,23.52,0,0,0,2.71.87c1,.27,2.15.47,3.29.78s2.28.59,3.42,1a14.64,14.64,0,0,1,3.18,1.53,6.93,6.93,0,0,1,3.45,6,7.76,7.76,0,0,1-3.34,6.75,14.49,14.49,0,0,1-8.4,2.2C66.26,29.56,63.12,28.7,61,27Z"/><path class="cls-1" d="M92.2,6.08H88.62A5.57,5.57,0,0,1,83.05.51h18.41A5.57,5.57,0,0,1,107,6.08H97.89V29.44H92.2Z"/><path class="cls-2" d="M112.29.51h0a2.86,2.86,0,0,1,2.87,2.87v23.2a2.86,2.86,0,0,1-2.87,2.86h0a2.86,2.86,0,0,1-2.86-2.86V3.38A2.86,2.86,0,0,1,112.29.51Z"/><path class="cls-2" d="M123.74.51h0l14.13,19.2V.51h0a5.73,5.73,0,0,1,5.73,5.73V23.91a5.54,5.54,0,0,1-5.53,5.53h0L124,10.17V26.58a2.87,2.87,0,0,1-2.87,2.86h0a2.87,2.87,0,0,1-2.87-2.86V6A5.5,5.5,0,0,1,123.74.51Z"/><path class="cls-2" d="M150.07,25.32a14.48,14.48,0,0,1-4-10.44,14.47,14.47,0,0,1,4.08-10.44,15.16,15.16,0,0,1,21.2,0A14.51,14.51,0,0,1,174,8.32l.9,2h-6.2l-.43-.62a8.51,8.51,0,0,0-1-1.3,9.48,9.48,0,0,0-13.11,0,9,9,0,0,0-2.4,6.52,9.09,9.09,0,0,0,2.4,6.55A8.42,8.42,0,0,0,160.71,24a8.32,8.32,0,0,0,6.56-2.59,8.5,8.5,0,0,0,1.92-3.29h-6.85a2.77,2.77,0,0,1-2.77-2.77h0a2.77,2.77,0,0,1,2.77-2.77h12.93l.08,1.49v.79c0,.63,0,1.25-.11,2a14,14,0,0,1-3.93,8.4,14,14,0,0,1-10.6,4.36A14.17,14.17,0,0,1,150.07,25.32Z"/></g></g></svg>