<svg xmlns="http://www.w3.org/2000/svg" viewBox="0 0 80.8 76.59"><defs><style>.cls-1{fill:#009ee2;}</style></defs><g id="Capa_2" data-name="Capa 2"><g id="Layer_2" data-name="Layer 2"><path class="cls-1" d="M11.92,24.34,13,29.44a1.24,1.24,0,0,0,.86.92,1.33,1.33,0,0,0,.34.05,1.23,1.23,0,0,0,.88-.37l4.69-4.81c5.69-.46,10.24-3.19,12-6.86a17,17,0,0,0,4.14,1.52l3.51,5.32a1.24,1.24,0,0,0,1,.55,1.22,1.22,0,0,0,1-.55l3.51-5.32a17.39,17.39,0,0,0,4.15-1.52c1.72,3.67,6.27,6.4,12,6.86L65.73,30a1.25,1.25,0,0,0,.88.37,1.27,1.27,0,0,0,.34-.05,1.2,1.2,0,0,0,.86-.92l1.07-5.1c5-1.67,8.25-5.24,8.25-9.24,0-5.63-6.46-10.2-14.41-10.2A18.2,18.2,0,0,0,54.06,7c-1.91-4.06-7.31-7-13.67-7S28.66,2.92,26.74,7A18.35,18.35,0,0,0,18.08,4.9C10.14,4.9,3.67,9.47,3.67,15.1,3.67,19.1,6.89,22.67,11.92,24.34Zm50.8-17c6.6,0,12,3.47,12,7.75,0,3.06-2.82,5.85-7.19,7.1a1.22,1.22,0,0,0-.86.93l-.75,3.55-3.4-3.5a1.26,1.26,0,0,0-.81-.36c-5.1-.3-9.26-2.71-10.51-5.81A8.75,8.75,0,0,0,54.8,10.2a7.91,7.91,0,0,0-.06-.84A15.93,15.93,0,0,1,62.72,7.35ZM40.39,2.45c6.6,0,12,3.48,12,7.75,0,3.35-3.46,6.39-8.41,7.4a1.21,1.21,0,0,0-.78.52L40.4,22.31l-2.76-4.18a1.26,1.26,0,0,0-.78-.53c-5-1-8.42-4.05-8.42-7.4C28.44,5.93,33.8,2.45,40.39,2.45ZM18.08,7.35a15.94,15.94,0,0,1,8,2,6.11,6.11,0,0,0-.06.86A8.73,8.73,0,0,0,29.64,17c-1.25,3.1-5.41,5.5-10.51,5.8a1.21,1.21,0,0,0-.8.36l-3.41,3.5-.75-3.55a1.22,1.22,0,0,0-.86-.93c-4.37-1.25-7.19-4-7.19-7.1C6.12,10.82,11.49,7.35,18.08,7.35Z"/><path class="cls-1" d="M80.8,59.67a15.12,15.12,0,0,0-6.74-12.19,8.75,8.75,0,0,0,1.49-4.9,7.7,7.7,0,0,0-15.4,0,8.72,8.72,0,0,0,1.49,4.89,15.15,15.15,0,0,0-6.12,8.38H53.21a11.84,11.84,0,0,0,.14-1.71,15.16,15.16,0,0,0-6.74-12.2,8.71,8.71,0,0,0,1.48-4.89,7.4,7.4,0,0,0-7.7-7.61,7.4,7.4,0,0,0-7.69,7.61A8.72,8.72,0,0,0,34.2,42a15.09,15.09,0,0,0-6.76,12.17,10.56,10.56,0,0,0,.15,1.71H25.31a15.23,15.23,0,0,0-6.14-8.38,8.74,8.74,0,0,0,1.48-4.89A7.4,7.4,0,0,0,13,35a7.4,7.4,0,0,0-7.7,7.61,8.75,8.75,0,0,0,1.49,4.9A15.14,15.14,0,0,0,0,59.67a9.58,9.58,0,0,0,6.19,9.26L2.74,74.75a1.25,1.25,0,0,0,0,1.23,1.23,1.23,0,0,0,1.07.61H77A1.22,1.22,0,0,0,78,74.75l-3.47-5.87A9.54,9.54,0,0,0,80.8,59.67Zm-13-22.25a5,5,0,0,1,5.25,5.16c0,3.24-2.35,5.88-5.25,5.88s-5.25-2.64-5.25-5.88A5,5,0,0,1,67.85,37.42ZM40.39,31.89a5,5,0,0,1,5.25,5.16c0,3.24-2.35,5.88-5.25,5.88s-5.25-2.64-5.25-5.88A5,5,0,0,1,40.39,31.89ZM35.86,43.76a7.16,7.16,0,0,0,9,0,12.47,12.47,0,0,1,6,10.36,8.31,8.31,0,0,1-.18,1.71H30.07a9.06,9.06,0,0,1-.18-1.71A12.48,12.48,0,0,1,35.86,43.76ZM13,37.42a5,5,0,0,1,5.25,5.16c0,3.24-2.35,5.88-5.25,5.88S7.7,45.82,7.7,42.58A5,5,0,0,1,13,37.42ZM2.45,59.67a12.48,12.48,0,0,1,6-10.38,7.17,7.17,0,0,0,9.08,0,12.37,12.37,0,0,1,5.26,6.56H14.64a1.2,1.2,0,0,0-1.05.6L7.47,66.78A7.14,7.14,0,0,1,2.45,59.67ZM74.84,74.14H6L15.34,58.3H65.45Zm-1.51-7.36L67.2,56.45a1.2,1.2,0,0,0-1-.6h-8.1a12.33,12.33,0,0,1,5.26-6.56,7.19,7.19,0,0,0,9.09,0,12.49,12.49,0,0,1,5.95,10.38A7.13,7.13,0,0,1,73.33,66.78Z"/></g></g></svg>