<svg xmlns="http://www.w3.org/2000/svg" viewBox="0 0 67.08 67.08"><defs><style>.cls-1{fill:#009ee2;}</style></defs><g id="Capa_2" data-name="Capa 2"><g id="Layer_2" data-name="Layer 2"><path class="cls-1" d="M66.07,0H1A1,1,0,0,0,0,1V66.07a1,1,0,0,0,1,1H66.07a1,1,0,0,0,1-1V1A1,1,0,0,0,66.07,0ZM2,2h63v8.13H2Zm63,63H2V12.2h63Z"/><path class="cls-1" d="M60,5.37a1.1,1.1,0,0,0-.29.73,1.06,1.06,0,0,0,.29.72,1,1,0,0,0,.72.29,1,1,0,0,0,.72-.29,1,1,0,0,0,.3-.72,1,1,0,0,0-.3-.72A1.07,1.07,0,0,0,60,5.37Z"/><path class="cls-1" d="M55.14,5.08a1,1,0,0,0-1,1,1,1,0,0,0,2,0A1,1,0,0,0,55.14,5.08Z"/><path class="cls-1" d="M48.83,5.38a1,1,0,0,0,0,1.44,1,1,0,0,0,.72.29,1,1,0,0,0,.72-.29,1,1,0,0,0,0-1.45A1.06,1.06,0,0,0,48.83,5.38Z"/><path class="cls-1" d="M16.64,31.34a4.92,4.92,0,1,0-4.91-4.91A4.92,4.92,0,0,0,16.64,31.34Zm0-7.79a2.88,2.88,0,1,1-2.87,2.88A2.88,2.88,0,0,1,16.64,23.55Z"/><path class="cls-1" d="M10,53.7a1,1,0,1,0,0,2H23.25a1,1,0,1,0,0-2H21.56V34.9a1,1,0,0,0-1-1H10a1,1,0,1,0,0,2h1.69V53.7Zm3.73-17.79h5.75V53.7H13.77Z"/><path class="cls-1" d="M31.13,29.48H56a1,1,0,0,0,0-2H31.13a1,1,0,1,0,0,2Z"/><path class="cls-1" d="M56,34.22H45.36a1,1,0,1,0,0,2H56a1,1,0,1,0,0-2Z"/><path class="cls-1" d="M31.13,36.25h8.64a1,1,0,0,0,0-2H31.13a1,1,0,1,0,0,2Z"/><path class="cls-1" d="M31.13,43H56a1,1,0,1,0,0-2H31.13a1,1,0,1,0,0,2Z"/><path class="cls-1" d="M31.13,49.81h18.4a1,1,0,0,0,0-2H31.13a1,1,0,1,0,0,2Z"/></g></g></svg>