<svg xmlns="http://www.w3.org/2000/svg" viewBox="0 0 70.23 67.84"><defs><style>.cls-1{fill:#009ee2;}</style></defs><g id="Capa_2" data-name="Capa 2"><g id="Layer_2" data-name="Layer 2"><path class="cls-1" d="M69.82,17.9c-2.73-4.26-3-5.53-3-5.58C65.78,3.24,59.22,0,53.44,0h-.87c-1.4,0-13.66.35-13.72,12.69,0,7.19,2,9.71,3.7,11.72a9,9,0,0,1,1.32,1.91,13.55,13.55,0,0,1,1,5.27c-4,1.12-9.08,4.09-9.12,12,0,7.19,2.05,9.71,3.7,11.73a8.71,8.71,0,0,1,1.32,1.9A11.91,11.91,0,0,1,41.57,64a2.47,2.47,0,0,0,1.18,2.49,14.11,14.11,0,0,0,6.62,1.4A14,14,0,0,0,56,66.41a2.66,2.66,0,0,0,1.29-2.3V60.77H58c2.39,0,5.32-.44,5.71-2.51a22.61,22.61,0,0,0,0-5.06,22.1,22.1,0,0,0,2.15-1.06,2.41,2.41,0,0,0,1.2-1.53,2.39,2.39,0,0,0-.37-1.79c-2.73-4.26-3-5.53-3-5.57a14.25,14.25,0,0,0-3.41-8.14,2.65,2.65,0,0,0,.16-.89V29.84h.63c2.39,0,5.32-.44,5.71-2.51a22.61,22.61,0,0,0,0-5.06A21.28,21.28,0,0,0,69,21.21a2.25,2.25,0,0,0,.83-3.31ZM64.91,50v0a.39.39,0,0,1,.06.14.63.63,0,0,1-.19.15,21.43,21.43,0,0,1-2.6,1.24,1.07,1.07,0,0,0-.67,1.1,23.71,23.71,0,0,1,.06,5.23c0,.23-1.15.78-3.62.78h-.57c-1.51,0-2.18.87-2.18,1.74v3.73a.55.55,0,0,1-.25.47c-2.53,1.49-8.57,1.5-11.15,0a.34.34,0,0,1-.14-.34,13.94,13.94,0,0,0-1-7.87A11.12,11.12,0,0,0,41.07,54c-1.51-1.85-3.22-3.94-3.22-10.46,0-10,9.67-10.49,11.59-10.49h.87c2.36,0,10.15.75,11.29,10.37C61.61,43.79,61.91,45.3,64.91,50Zm3.2-30.77a.63.63,0,0,1-.19.15,21.43,21.43,0,0,1-2.6,1.24,1.05,1.05,0,0,0-.67,1.1,24.33,24.33,0,0,1,.06,5.23c0,.23-1.15.78-3.62.78h-.57c-1.51,0-2.18.87-2.18,1.74v3.92a13.94,13.94,0,0,0-8-2.44h-.87a17,17,0,0,0-2.48.21,14.77,14.77,0,0,0-1.16-5.7,10.5,10.5,0,0,0-1.6-2.37C42.69,21.24,41,19.14,41,12.63,41,2.65,50.64,2.14,52.57,2.14h.87c2.36,0,10.15.75,11.29,10.37,0,.35.31,1.87,3.31,6.56v0A.39.39,0,0,1,68.11,19.22Z"/><path class="cls-1" d="M31.13,12.32C30.06,3.24,23.5,0,17.72,0h-.87C15.46,0,3.19.37,3.13,12.71c0,7.19,2.05,9.71,3.7,11.72a9,9,0,0,1,1.32,1.91,13.56,13.56,0,0,1,1,5.27C5.13,32.73,0,35.7,0,43.64c0,7.19,2.05,9.71,3.7,11.73A8.71,8.71,0,0,1,5,57.27,11.91,11.91,0,0,1,5.85,64,2.47,2.47,0,0,0,7,66.44a14.11,14.11,0,0,0,6.62,1.4,14,14,0,0,0,6.68-1.43,2.68,2.68,0,0,0,1.29-2.3V60.77h.62c2.39,0,5.32-.44,5.71-2.51a22.61,22.61,0,0,0,0-5.06,22.1,22.1,0,0,0,2.15-1.06A2.25,2.25,0,0,0,31,48.83c-2.73-4.26-3-5.53-3-5.57a14.32,14.32,0,0,0-3.42-8.14,2.65,2.65,0,0,0,.17-.89V29.84h.62c2.39,0,5.32-.44,5.71-2.51a22.61,22.61,0,0,0,0-5.06,20.28,20.28,0,0,0,2.15-1.07,2.33,2.33,0,0,0,1.2-1.53,2.37,2.37,0,0,0-.37-1.78C31.38,13.64,31.13,12.37,31.13,12.32ZM29.19,50l0,0a.83.83,0,0,1,0,.12s0,.06-.19.15a22.48,22.48,0,0,1-2.59,1.24,1.07,1.07,0,0,0-.68,1.1,23.71,23.71,0,0,1,.06,5.23c0,.23-1.14.78-3.62.78h-.57c-1.51,0-2.18.87-2.18,1.74v3.73a.54.54,0,0,1-.24.47c-2.53,1.49-8.58,1.5-11.16,0A.34.34,0,0,1,8,64.26a13.94,13.94,0,0,0-1-7.87A11.12,11.12,0,0,0,5.35,54c-1.51-1.85-3.22-3.94-3.22-10.46.05-10,9.67-10.49,11.6-10.49h.86c2.36,0,10.16.75,11.29,10.37C25.9,43.78,26.19,45.3,29.19,50Zm3.2-30.77a.63.63,0,0,1-.19.15,22.48,22.48,0,0,1-2.59,1.24,1.06,1.06,0,0,0-.68,1.1A23.7,23.7,0,0,1,29,26.94c0,.23-1.15.78-3.62.78H24.8c-1.51,0-2.18.87-2.18,1.74v3.92a13.92,13.92,0,0,0-8-2.44h-.86a16.76,16.76,0,0,0-2.48.21,15.15,15.15,0,0,0-1.16-5.7,10.88,10.88,0,0,0-1.61-2.37C7,21.24,5.26,19.14,5.26,12.63c0-10,9.67-10.49,11.59-10.49h.87c2.36,0,10.16.75,11.29,10.37,0,.35.31,1.87,3.31,6.56v0A.39.39,0,0,1,32.39,19.22Z"/><path class="cls-1" d="M58.65,8a1.07,1.07,0,0,0-1.45.43L51.65,18.61,48,14.76a1.06,1.06,0,1,0-1.55,1.46l4.61,4.92a1.11,1.11,0,0,0,.78.33H52a1,1,0,0,0,.8-.54L59.07,9.45A1.07,1.07,0,0,0,58.65,8Z"/><path class="cls-1" d="M21,11.26a1.06,1.06,0,0,0-1.51,0l-1.91,1.91-1.9-1.91a1.06,1.06,0,0,0-1.51,0,1.05,1.05,0,0,0,0,1.5l1.91,1.91L14.2,16.58a1.05,1.05,0,0,0,0,1.5,1.05,1.05,0,0,0,1.51,0l1.9-1.9,1.91,1.9A1.06,1.06,0,0,0,21,16.58l-1.91-1.91L21,12.76A1.07,1.07,0,0,0,21,11.26Z"/><path class="cls-1" d="M17.9,42.4a1.06,1.06,0,0,0-1.51,0l-1.91,1.91-1.9-1.91a1.06,1.06,0,1,0-1.51,1.5L13,45.81l-1.91,1.91a1.08,1.08,0,0,0,0,1.51,1.07,1.07,0,0,0,1.51,0l1.9-1.91,1.91,1.91a1.07,1.07,0,0,0,1.51,0,1.08,1.08,0,0,0,0-1.51L16,45.81,17.9,43.9A1.07,1.07,0,0,0,17.9,42.4Z"/><path class="cls-1" d="M53.66,42.4a1.06,1.06,0,0,0-1.51,0l-1.91,1.91-1.9-1.91a1.06,1.06,0,0,0-1.51,1.5l1.91,1.91-1.91,1.91a1.08,1.08,0,0,0,0,1.51,1.07,1.07,0,0,0,1.51,0l1.9-1.91,1.91,1.91a1.07,1.07,0,0,0,1.51,0,1.08,1.08,0,0,0,0-1.51l-1.91-1.91,1.91-1.91A1.07,1.07,0,0,0,53.66,42.4Z"/></g></g></svg>