<svg xmlns="http://www.w3.org/2000/svg" viewBox="0 0 69.8 69.8"><defs><style>.cls-1{fill:#009ee2;}</style></defs><g id="Capa_2" data-name="Capa 2"><g id="Layer_2" data-name="Layer 2"><path class="cls-1" d="M33.38,21.82a1.06,1.06,0,0,0,1.06-1.06V11.67a1.06,1.06,0,1,0-2.11,0v9.09A1.06,1.06,0,0,0,33.38,21.82Z"/><path class="cls-1" d="M33.38,51a1,1,0,0,0-1.05,1v9.1a1.06,1.06,0,0,0,2.11,0v-9.1A1.05,1.05,0,0,0,33.38,51Z"/><path class="cls-1" d="M48,36.42a1.06,1.06,0,0,0,1.06,1h9.09a1.06,1.06,0,1,0,0-2.11H49A1.06,1.06,0,0,0,48,36.42Z"/><path class="cls-1" d="M18.78,36.42a1.05,1.05,0,0,0-1.05-1.06H8.64a1.06,1.06,0,1,0,0,2.11h9.09A1,1,0,0,0,18.78,36.42Z"/><path class="cls-1" d="M29.55,55.18a19.1,19.1,0,0,1-14.92-14.9,1.06,1.06,0,1,0-2.07.42A21.18,21.18,0,0,0,29.13,57.25a.75.75,0,0,0,.21,0,1.06,1.06,0,0,0,.21-2.09Z"/><path class="cls-1" d="M13.37,33.44a.76.76,0,0,0,.21,0,1.06,1.06,0,0,0,1-.85,19.06,19.06,0,0,1,14.93-15,1.06,1.06,0,0,0-.42-2.08A21.22,21.22,0,0,0,12.54,32.2,1.06,1.06,0,0,0,13.37,33.44Z"/><path class="cls-1" d="M53.39,39.45a1.07,1.07,0,0,0-1.25.83,19.1,19.1,0,0,1-14.93,14.9,1.06,1.06,0,0,0,.21,2.09.86.86,0,0,0,.22,0A21.19,21.19,0,0,0,54.21,40.7,1.06,1.06,0,0,0,53.39,39.45Z"/><path class="cls-1" d="M64.07,11.4a1.06,1.06,0,0,0,.75-.31l4.67-4.67a1.05,1.05,0,0,0-.75-1.8H65.19V1.06a1.05,1.05,0,0,0-.66-1,1.07,1.07,0,0,0-1.15.23L58.71,5a1.06,1.06,0,0,0-.31.75V9.91l-2.19,2.18a33.45,33.45,0,1,0,1.5,1.5l2.18-2.19ZM60.51,6.17l2.56-2.56V5.67a1.05,1.05,0,0,0,1.06,1.06h2.06L63.64,9.29H60.51Zm4.14,30.25a31.32,31.32,0,1,1-9.93-22.83l-7.07,7.06a21.22,21.22,0,0,0-10-5.07,1.06,1.06,0,0,0-.43,2.08,19.06,19.06,0,0,1,8.95,4.49L38.33,30a8.15,8.15,0,1,0,1.49,1.49l7.83-7.83a19.09,19.09,0,0,1,4.5,9,1.06,1.06,0,0,0,1,.85.76.76,0,0,0,.21,0,1,1,0,0,0,.83-1.24,21.13,21.13,0,0,0-5.07-10.05l7.06-7.07A31.17,31.17,0,0,1,64.65,36.42Zm-32,.74a1,1,0,0,0,.74.31,1,1,0,0,0,.75-.31L38.31,33a6,6,0,1,1-1.49-1.49l-4.18,4.18A1,1,0,0,0,32.64,37.16Z"/></g></g></svg>